@startuml
'https://plantuml.com/zh/class-diagram

class 旅店 {
    - String id
    - String name
    - String address
    - String phone
    - String status
    - String description
    - List<房间> rooms
    - List<雇员> employees
    - List<预定> reserves
    - List<支付> pays
    - List<入住信息> checkIns
    - List<退房信息> checkOuts
    查看房间列表()
    查看预定列表()
    查看支付列表()
    查看入住列表()
    查看退房列表()
    预定房间()
    接受预定()
    取消预定()
    登记入住()
    退房()
}

class 履约单 {
    - String id
    - String number // 订单号
    - Room room // 房间
    - String status // 状态 [未入住、已入住、已退房]
    - List<旅客> customers // 旅客信息
    - 预定 reserve // 预定信息
    - List<支付> pays // 支付信息
    - Date checkInTime // 入住时间
    - Date checkOutTime // 退房时间
}
履约单 *-- 预定
履约单 o-- 房间
履约单 o-- 旅客
履约单 *-- 支付
房间 -- 折扣

class 房间 {
    - String id
    - String type // 类型 [单人间、双人间]
    - String status // 状态 [空闲、已预定、已入住]
    - double price // 价格
    - String number // 房间号
    - String floor // 楼层
    - Discount discount? // 折扣
    - Reserve reserve? // 预定
    - CheckIn checkIn? // 登记入住
}

class 折扣 {
    - String name // 折扣名
    - double discount // 折扣
}

class 预定 {
    - String id
    - String type // 预定方式：网络、电话、现场
    - String status // 预定状态：已预定、已取消
    - String roomNumber // 预定房间号
    - Customer customer // 旅客信息
    - Date checkInTime // 预估入住时间
    - double deposit // 订金
}

class 支付 {
    - String id
    - String method // 支付方式 [支付宝、微信、现金]
    - String serialNumber? // 流水号 [一般与订单号系统]
    - String thirdPartySerialNumber? // 第三方流水号 [支付成功后返回]
    - String type // 类型 [常规、订金、住宿尾款、住宿费用、押金]
    - String status // 支付状态 [已支付、未支付、已退款]
    - double amount // 支付金额
    - Date time // 支付时间
}

class 旅客 {
    - String name // 姓名
    - String idNumber // 身份证号
    - String phone? // 手机号 [预定时必填]
}

class 房门 {
    - String id
    - RoomNo roomNo // 房间号
    - RoomLock roomLock // 房门锁
    - String status // 状态 [开启、关闭]
    + open(RoomCard roomCard)
}

class 房卡 {
    - String id
    - String roomNumber // 房间号
    - String key // 密钥
}

class 房门锁 {
    - String id
    - String roomNumber // 房间号
    - String key // 密钥
    - String status // 状态 [未锁定、锁定]
}
房门 --> 房卡
房门 --> 房门锁
class 雇员 {
    - String id
    - String name
    - String phone
    - String status // 状态 [在职、离职]
    - String role // 角色 [服务员、经理、清洁员]
}
旅店 o-- 雇员
旅店 *- 履约单
class 用户 {
    - String id
    - String name
    - String phone
    - String pwd
    - String idNumber
    - String status // 状态 [正常、黑名单]
    - 会员卡 memberCard // 会员卡
}

class 会员卡 {
    - String level // 等级 [普通、银卡、金卡、钻石卡]
    - double points // 积分
    - double discount // 折扣
}

用户 -- 会员卡

abstract 报表 {
    - Date startTime // 开始时间
    - Date endTime // 结束时间
    - String name // 报表名称
    - String type // 报表类型 [预定报表、入住报表]
}

class 预定报表 extends 报表 {
    - String id
    - Integer 预定总数量
    - Integer 预定成功数量
    - Integer 取消预定数量
    - double 预定总金额
    - double 预定成功的金额
    - double 取消预定的金额
}

class 入住报表 extends 报表 {
    - String id
    - Integer 入住人数
    - Integer 入住房次
    - Integer 置空率 // [入住房次/天数/总房间数]
    - double 入住总金额
    - double 优惠总金额
}
@enduml